<svg width="322" height="66" viewBox="0 0 322 66" fill="none" xmlns="http://www.w3.org/2000/svg">
<path d="M0.752 26.664C0.752 22.312 1.73333 18.408 3.696 14.952C5.65867 11.4533 8.32533 8.72267 11.696 6.76C15.1093 4.79733 18.8853 3.816 23.024 3.816C27.888 3.816 32.1333 4.98933 35.76 7.336C39.3867 9.68267 42.032 13.0107 43.696 17.32H36.72C35.4827 14.632 33.6907 12.5627 31.344 11.112C29.04 9.66133 26.2667 8.936 23.024 8.936C19.9093 8.936 17.1147 9.66133 14.64 11.112C12.1653 12.5627 10.224 14.632 8.816 17.32C7.408 19.9653 6.704 23.08 6.704 26.664C6.704 30.2053 7.408 33.32 8.816 36.008C10.224 38.6533 12.1653 40.7013 14.64 42.152C17.1147 43.6027 19.9093 44.328 23.024 44.328C26.2667 44.328 29.04 43.624 31.344 42.216C33.6907 40.7653 35.4827 38.696 36.72 36.008H43.696C42.032 40.2747 39.3867 43.5813 35.76 45.928C32.1333 48.232 27.888 49.384 23.024 49.384C18.8853 49.384 15.1093 48.424 11.696 46.504C8.32533 44.5413 5.65867 41.832 3.696 38.376C1.73333 34.92 0.752 31.016 0.752 26.664ZM67.6615 49.576C64.3762 49.576 61.3895 48.8293 58.7015 47.336C56.0562 45.8427 53.9655 43.7307 52.4295 41C50.9362 38.2267 50.1895 35.0267 50.1895 31.4C50.1895 27.816 50.9575 24.6587 52.4935 21.928C54.0722 19.1547 56.2055 17.0427 58.8935 15.592C61.5815 14.0987 64.5895 13.352 67.9175 13.352C71.2455 13.352 74.2535 14.0987 76.9415 15.592C79.6295 17.0427 81.7415 19.1333 83.2775 21.864C84.8562 24.5947 85.6455 27.7733 85.6455 31.4C85.6455 35.0267 84.8348 38.2267 83.2135 41C81.6348 43.7307 79.4802 45.8427 76.7495 47.336C74.0188 48.8293 70.9895 49.576 67.6615 49.576ZM67.6615 44.456C69.7522 44.456 71.7148 43.9653 73.5495 42.984C75.3842 42.0027 76.8562 40.5307 77.9655 38.568C79.1175 36.6053 79.6935 34.216 79.6935 31.4C79.6935 28.584 79.1388 26.1947 78.0295 24.232C76.9202 22.2693 75.4695 20.8187 73.6775 19.88C71.8855 18.8987 69.9442 18.408 67.8535 18.408C65.7202 18.408 63.7575 18.8987 61.9655 19.88C60.2162 20.8187 58.8082 22.2693 57.7415 24.232C56.6748 26.1947 56.1415 28.584 56.1415 31.4C56.1415 34.2587 56.6535 36.6693 57.6775 38.632C58.7442 40.5947 60.1522 42.0667 61.9015 43.048C63.6508 43.9867 65.5708 44.456 67.6615 44.456ZM106.359 43.624L117.239 13.928H123.447L109.687 49H102.903L89.143 13.928H95.415L106.359 43.624ZM132.186 8.232C131.077 8.232 130.138 7.848 129.37 7.08C128.602 6.312 128.218 5.37333 128.218 4.264C128.218 3.15466 128.602 2.216 129.37 1.448C130.138 0.679998 131.077 0.295998 132.186 0.295998C133.253 0.295998 134.149 0.679998 134.874 1.448C135.642 2.216 136.026 3.15466 136.026 4.264C136.026 5.37333 135.642 6.312 134.874 7.08C134.149 7.848 133.253 8.232 132.186 8.232ZM135.002 13.928V49H129.178V13.928H135.002ZM142.752 31.336C142.752 27.752 143.477 24.616 144.928 21.928C146.379 19.1973 148.363 17.0853 150.88 15.592C153.44 14.0987 156.299 13.352 159.456 13.352C162.187 13.352 164.725 13.992 167.072 15.272C169.419 16.5093 171.211 18.152 172.448 20.2V1.64H178.336V49H172.448V42.408C171.296 44.4987 169.589 46.2267 167.328 47.592C165.067 48.9147 162.421 49.576 159.392 49.576C156.277 49.576 153.44 48.808 150.88 47.272C148.363 45.736 146.379 43.5813 144.928 40.808C143.477 38.0347 142.752 34.8773 142.752 31.336ZM172.448 31.4C172.448 28.7547 171.915 26.4507 170.848 24.488C169.781 22.5253 168.331 21.032 166.496 20.008C164.704 18.9413 162.72 18.408 160.544 18.408C158.368 18.408 156.384 18.92 154.592 19.944C152.8 20.968 151.371 22.4613 150.304 24.424C149.237 26.3867 148.704 28.6907 148.704 31.336C148.704 34.024 149.237 36.3707 150.304 38.376C151.371 40.3387 152.8 41.8533 154.592 42.92C156.384 43.944 158.368 44.456 160.544 44.456C162.72 44.456 164.704 43.944 166.496 42.92C168.331 41.8533 169.781 40.3387 170.848 38.376C171.915 36.3707 172.448 34.0453 172.448 31.4ZM222.546 4.392V49H216.722V28.776H194.002V49H188.178V4.392H194.002V23.976H216.722V4.392H222.546ZM247.787 49.576C244.501 49.576 241.515 48.8293 238.827 47.336C236.181 45.8427 234.091 43.7307 232.555 41C231.061 38.2267 230.315 35.0267 230.315 31.4C230.315 27.816 231.083 24.6587 232.619 21.928C234.197 19.1547 236.331 17.0427 239.019 15.592C241.707 14.0987 244.715 13.352 248.043 13.352C251.371 13.352 254.379 14.0987 257.067 15.592C259.755 17.0427 261.867 19.1333 263.403 21.864C264.981 24.5947 265.771 27.7733 265.771 31.4C265.771 35.0267 264.96 38.2267 263.339 41C261.76 43.7307 259.605 45.8427 256.875 47.336C254.144 48.8293 251.115 49.576 247.787 49.576ZM247.787 44.456C249.877 44.456 251.84 43.9653 253.675 42.984C255.509 42.0027 256.981 40.5307 258.091 38.568C259.243 36.6053 259.819 34.216 259.819 31.4C259.819 28.584 259.264 26.1947 258.155 24.232C257.045 22.2693 255.595 20.8187 253.803 19.88C252.011 18.8987 250.069 18.408 247.979 18.408C245.845 18.408 243.883 18.8987 242.091 19.88C240.341 20.8187 238.933 22.2693 237.867 24.232C236.8 26.1947 236.267 28.584 236.267 31.4C236.267 34.2587 236.779 36.6693 237.803 38.632C238.869 40.5947 240.277 42.0667 242.027 43.048C243.776 43.9867 245.696 44.456 247.787 44.456ZM276.564 8.232C275.455 8.232 274.516 7.848 273.748 7.08C273.023 6.312 272.66 5.37333 272.66 4.264C272.66 3.15466 273.023 2.216 273.748 1.448C274.516 0.679998 275.455 0.295998 276.564 0.295998C277.673 0.295998 278.591 0.679998 279.316 1.448C280.084 2.216 280.468 3.15466 280.468 4.264C280.468 5.37333 280.084 6.312 279.316 7.08C278.591 7.848 277.673 8.232 276.564 8.232ZM279.444 56.616C279.444 59.7307 278.655 62.0133 277.076 63.464C275.497 64.9147 273.193 65.64 270.164 65.64H266.772V60.712H269.204C270.825 60.712 271.956 60.392 272.596 59.752C273.279 59.112 273.62 58.024 273.62 56.488V13.928H279.444V56.616ZM321.303 30.12C321.303 31.2293 321.239 32.4027 321.111 33.64H293.079C293.292 37.096 294.466 39.8053 296.599 41.768C298.775 43.688 301.399 44.648 304.471 44.648C306.988 44.648 309.079 44.072 310.743 42.92C312.45 41.7253 313.644 40.1467 314.327 38.184H320.599C319.66 41.5547 317.783 44.3067 314.967 46.44C312.151 48.5307 308.652 49.576 304.471 49.576C301.143 49.576 298.156 48.8293 295.511 47.336C292.908 45.8427 290.86 43.7307 289.367 41C287.874 38.2267 287.127 35.0267 287.127 31.4C287.127 27.7733 287.852 24.5947 289.303 21.864C290.754 19.1333 292.78 17.0427 295.383 15.592C298.028 14.0987 301.058 13.352 304.471 13.352C307.799 13.352 310.743 14.0773 313.303 15.528C315.863 16.9787 317.826 18.984 319.191 21.544C320.599 24.0613 321.303 26.92 321.303 30.12ZM315.287 28.904C315.287 26.6853 314.796 24.7867 313.815 23.208C312.834 21.5867 311.49 20.3707 309.783 19.56C308.119 18.7067 306.263 18.28 304.215 18.28C301.271 18.28 298.754 19.2187 296.663 21.096C294.615 22.9733 293.442 25.576 293.143 28.904H315.287Z" fill="#EE4637"/>
</svg>
