<svg width="187" height="187" viewBox="0 0 187 187" fill="none" xmlns="http://www.w3.org/2000/svg">
<path d="M134.531 122.437H18.7147L37.9002 103.345C40.0409 101.214 40.0491 97.7518 37.9185 95.6111C35.7879 93.4701 32.3251 93.4621 30.1843 95.5925L1.60901 124.03C1.6071 124.032 1.60573 124.034 1.60409 124.035C-0.531186 126.166 -0.538021 129.64 1.60354 131.777C1.60546 131.779 1.60682 131.781 1.60846 131.782L30.1838 160.22C32.3243 162.35 35.7871 162.343 37.918 160.201C40.0486 158.061 40.0404 154.598 37.8996 152.467L18.7147 133.375H134.531C137.552 133.375 140 130.927 140 127.906C140 124.886 137.552 122.437 134.531 122.437Z" fill="white"/>
</svg>
