<svg width="140" height="68" viewBox="0 0 140 68" fill="none" xmlns="http://www.w3.org/2000/svg">
<path d="M134.531 28.4375H18.7147L37.9002 9.34498C40.0409 7.21436 40.0491 3.75182 37.9185 1.61107C35.7879 -0.529942 32.3251 -0.53787 30.1843 1.59248L1.60901 30.03C1.6071 30.0316 1.60573 30.0335 1.60409 30.0352C-0.531186 32.1658 -0.538021 35.6396 1.60354 37.7773C1.60546 37.7789 1.60682 37.7808 1.60846 37.7825L30.1838 66.22C32.3243 68.3501 35.7871 68.3427 37.918 66.2014C40.0486 64.0607 40.0404 60.5981 37.8996 58.4675L18.7147 39.375H134.531C137.552 39.375 140 36.9266 140 33.9062C140 30.8859 137.552 28.4375 134.531 28.4375Z" fill="#EE4637"/>
</svg>
