<svg width="708" height="606" viewBox="0 0 708 606" fill="none" xmlns="http://www.w3.org/2000/svg">
<path opacity="0.4" d="M561.75 401.53L464.264 454.149C459.278 456.841 453.663 458.564 447.815 459.197C441.967 459.83 436.027 459.358 430.415 457.814L323.556 428.413C317.909 426.86 311.93 426.392 306.047 427.043C300.164 427.694 294.521 429.448 289.521 432.18L211.287 474.925C208.887 476.223 206.166 477.025 203.341 477.266C200.516 477.507 197.664 477.181 195.011 476.315C192.359 475.448 189.979 474.064 188.06 472.273C186.142 470.481 184.737 468.332 183.958 465.995L116.436 263.385C115.354 260.136 115.529 256.675 116.937 253.518C118.345 250.362 120.909 247.681 124.245 245.876L222.771 192.579C228.233 189.624 234.387 187.731 240.797 187.035C247.207 186.338 253.718 186.854 259.87 188.546L363.319 217.009C369.494 218.707 376.029 219.221 382.461 218.513C388.894 217.805 395.065 215.893 400.536 212.913L474.62 172.56C477.019 171.253 479.742 170.444 482.572 170.197C485.401 169.949 488.259 170.271 490.918 171.135C493.577 172 495.963 173.384 497.887 175.177C499.811 176.97 501.219 179.123 501.999 181.464L569.51 384.046C570.59 387.287 570.418 390.74 569.02 393.89C567.622 397.041 565.072 399.72 561.75 401.53Z" fill="#CCCDCF"/>
<path d="M565.556 380.027L482.311 425.369C476.839 428.349 470.668 430.261 464.236 430.969C457.804 431.677 451.268 431.163 445.094 429.464L341.638 401.002C335.486 399.309 328.975 398.793 322.565 399.49C316.154 400.187 310.001 402.079 304.538 405.034L215.09 453.422C212.69 454.721 209.97 455.522 207.144 455.763C204.319 456.004 201.467 455.679 198.815 454.812C196.162 453.945 193.782 452.561 191.864 450.77C189.945 448.979 188.541 446.829 187.762 444.492L120.24 241.882C119.158 238.634 119.333 235.172 120.741 232.016C122.148 228.86 124.712 226.178 128.049 224.373L226.569 171.074C232.032 168.119 238.185 166.227 244.595 165.53C251.006 164.833 257.517 165.349 263.668 167.041L367.124 195.505C373.298 197.203 379.834 197.717 386.266 197.009C392.698 196.301 398.87 194.389 404.341 191.409L478.425 151.056C480.824 149.75 483.547 148.94 486.377 148.693C489.206 148.445 492.064 148.767 494.723 149.631C497.382 150.496 499.768 151.88 501.692 153.673C503.615 155.467 505.023 157.619 505.804 159.96L573.315 362.541C574.396 365.782 574.224 369.235 572.826 372.386C571.428 375.537 568.878 378.217 565.556 380.027Z" fill="white"/>
<path d="M331.707 378.099L316.228 340.718L243.078 362.152L220.205 305.427L160.626 315.577L202.398 440.918C202.583 441.468 202.972 441.951 203.507 442.294C204.041 442.637 204.692 442.821 205.36 442.819C205.927 442.817 206.481 442.674 206.954 442.406L291.995 396.403C291.625 396.033 331.707 378.099 331.707 378.099Z" fill="#EAF4F7"/>
<path d="M565.556 380.027L482.311 425.369C476.839 428.349 470.668 430.261 464.236 430.969C457.804 431.677 451.268 431.163 445.094 429.464L341.638 401.002C335.486 399.309 328.975 398.793 322.565 399.49C316.154 400.187 310.001 402.079 304.538 405.034L215.09 453.422C212.69 454.721 209.97 455.522 207.144 455.763C204.319 456.004 201.467 455.679 198.815 454.812C196.162 453.945 193.782 452.561 191.864 450.77C189.945 448.979 188.541 446.829 187.762 444.493L120.24 241.882C119.158 238.634 119.333 235.172 120.741 232.016C122.148 228.86 124.712 226.178 128.049 224.373L226.569 171.074C232.032 168.119 238.185 166.227 244.595 165.53C251.006 164.833 257.517 165.349 263.668 167.041L367.124 195.505C373.298 197.203 379.834 197.717 386.266 197.009C392.698 196.301 398.87 194.389 404.341 191.409L478.425 151.056C480.824 149.75 483.547 148.94 486.377 148.693C489.206 148.445 492.064 148.767 494.723 149.631C497.382 150.496 499.768 151.88 501.692 153.673C503.615 155.467 505.023 157.619 505.804 159.96L573.315 362.541C574.396 365.782 574.224 369.235 572.826 372.386C571.428 375.537 568.878 378.217 565.556 380.027V380.027Z" stroke="#363A5A" stroke-width="6" stroke-miterlimit="10"/>
<path d="M254.927 354.859C254.927 354.859 256.195 354.576 258.334 354.041" stroke="#363A5A" stroke-width="4" stroke-linecap="round" stroke-linejoin="round"/>
<path d="M268.627 351.221C283.66 346.744 305.721 338.529 305.986 328.814C306.34 315.906 233.252 251.327 272.545 247.423C403.729 234.391 344.95 327.779 404.78 325.692C430.056 324.81 383.313 295.065 455.531 273.565C466.236 270.377 460.918 247.073 457.326 234.889" stroke="black" stroke-width="4" stroke-linecap="round" stroke-linejoin="round" stroke-dasharray="10.18 15.26"/>
<path d="M455.937 230.417C455.34 228.589 454.946 227.508 454.946 227.508" stroke="#363A5A" stroke-width="4" stroke-linecap="round" stroke-linejoin="round"/>
<path opacity="0.22" d="M250.357 385.64C269.201 385.64 284.477 372.565 284.477 356.436C284.477 340.307 269.201 327.232 250.357 327.232C231.513 327.232 216.237 340.307 216.237 356.436C216.237 372.565 231.513 385.64 250.357 385.64Z" fill="#3DC0CB"/>
<path d="M250.357 373.371C261.285 373.371 270.143 365.789 270.143 356.436C270.143 347.083 261.285 339.501 250.357 339.501C239.43 339.501 230.571 347.083 230.571 356.436C230.571 365.789 239.43 373.371 250.357 373.371Z" fill="#4C4FD9"/>
<path d="M250.357 339.501C247.324 339.499 244.331 340.095 241.611 341.244C238.89 342.392 236.515 344.06 234.669 346.121C238.559 343.858 243.263 342.855 247.939 343.292C252.614 343.729 256.954 345.578 260.181 348.506C263.409 351.435 265.311 355.251 265.548 359.272C265.785 363.292 264.341 367.253 261.474 370.445C264.975 368.41 267.621 365.468 269.024 362.05C270.426 358.633 270.512 354.921 269.269 351.459C268.025 347.997 265.517 344.967 262.114 342.815C258.71 340.663 254.59 339.501 250.359 339.501H250.357Z" fill="#64C7CF"/>
<path d="M250.357 373.371C261.285 373.371 270.143 365.789 270.143 356.436C270.143 347.083 261.285 339.501 250.357 339.501C239.43 339.501 230.571 347.083 230.571 356.436C230.571 365.789 239.43 373.371 250.357 373.371Z" stroke="#4C4FD9" stroke-width="6" stroke-miterlimit="10"/>
<path d="M259.374 205.337L316.122 214.544L303.09 194.939L256.122 180.913C253.405 180.102 250.529 179.757 247.656 179.897C244.784 180.038 241.972 180.661 239.381 181.732L136.178 235.389C135.624 235.692 135.198 236.139 134.964 236.664C134.729 237.19 134.698 237.766 134.876 238.308L151.52 288.249L196.895 278.646L188.562 250.036L259.374 205.337Z" fill="#4C4FD9" stroke="black" stroke-width="4" stroke-linecap="round" stroke-linejoin="round"/>
<path d="M349.306 329.015L381.689 335.994L397.345 366.706L362.46 361.812L349.306 329.015Z" fill="#FDDCBF" stroke="black" stroke-width="4" stroke-linecap="round" stroke-linejoin="round"/>
<path d="M455.546 237.013C429.239 237.013 407.913 230.483 407.913 222.427C407.913 214.371 429.239 207.841 455.546 207.841C481.853 207.841 503.178 214.371 503.178 222.427C503.178 230.483 481.852 237.013 455.546 237.013Z" fill="#EAF4F7"/>
<path d="M470.493 319.657L529.913 297.517L553.387 358.729L457.168 405.531L439.532 362.929L477.155 344.815L470.493 319.657Z" fill="#FDDCBF" stroke="black" stroke-width="4" stroke-linecap="round" stroke-linejoin="round"/>
<path d="M525.677 151.307C525.677 116.28 492.461 88.0743 452.214 89.7117C416.177 91.1782 385.455 117.456 385.455 149.175C385.455 195.059 455.547 230.439 455.547 230.439C455.547 230.439 525.677 195.059 525.677 151.307Z" fill="#EE4637"/>
<path d="M481.146 212.684C475.619 216.375 468.804 218.37 461.795 218.349C454.785 218.328 447.986 216.293 442.489 212.57C421.745 198.511 391.742 172.985 391.742 142.965C391.794 130.219 396.719 117.838 405.766 107.714C393.324 118.468 385.454 133.124 385.454 149.175C385.454 195.059 455.546 230.439 455.546 230.439C455.546 230.439 484.131 216.017 504.803 194.201C497.506 200.892 489.595 207.073 481.146 212.684Z" fill="#CD3C27"/>
<path d="M452.214 89.7117C439.578 90.2689 427.361 93.7734 416.885 99.8458C425.134 96.4406 434.098 94.4861 443.246 94.0979C483.494 92.4617 516.71 120.666 516.71 155.693C516.71 189.999 473.597 219.156 454.978 230.148C455.342 230.338 455.544 230.441 455.544 230.441C455.544 230.441 525.675 195.059 525.675 151.307C525.677 116.28 492.461 88.0743 452.214 89.7117Z" fill="#F07378"/>
<path d="M455.546 174.895C449.839 174.895 444.26 173.447 439.514 170.733C434.769 168.019 431.07 164.162 428.886 159.649C426.702 155.136 426.131 150.17 427.244 145.379C428.357 140.588 431.105 136.187 435.141 132.733C439.176 129.279 444.318 126.926 449.915 125.973C455.513 125.02 461.314 125.509 466.587 127.379C471.86 129.248 476.366 132.413 479.537 136.475C482.708 140.537 484.4 145.312 484.4 150.197C484.4 156.747 481.36 163.029 475.949 167.661C470.538 172.292 463.198 174.895 455.546 174.895Z" fill="white"/>
<path d="M455.546 174.895C449.839 174.895 444.26 173.447 439.514 170.733C434.769 168.019 431.07 164.162 428.886 159.649C426.702 155.136 426.131 150.17 427.244 145.379C428.357 140.588 431.105 136.187 435.141 132.733C439.176 129.279 444.318 126.926 449.915 125.973C455.513 125.02 461.314 125.509 466.587 127.379C471.86 129.248 476.366 132.413 479.537 136.475C482.708 140.537 484.4 145.312 484.4 150.197C484.4 156.747 481.36 163.029 475.949 167.661C470.538 172.292 463.198 174.895 455.546 174.895Z" stroke="#363A5A" stroke-width="6" stroke-miterlimit="10"/>
<path d="M525.677 151.307C525.677 116.28 492.461 88.0743 452.214 89.7117C416.177 91.1782 385.455 117.456 385.455 149.175C385.455 195.059 455.547 230.439 455.547 230.439C455.547 230.439 525.677 195.059 525.677 151.307Z" stroke="black" stroke-width="6" stroke-linecap="round" stroke-linejoin="round"/>
</svg>
