<svg width="116" height="116" viewBox="0 0 116 116" fill="none" xmlns="http://www.w3.org/2000/svg">
<path d="M79.5298 32.7161H50.7212C48.1821 32.7161 46.1241 34.7739 46.1241 37.3132C46.1241 39.8523 48.1819 41.9104 50.7212 41.9104H79.5298C82.0705 41.9104 84.127 39.8526 84.127 37.3132C84.1267 34.7739 82.0689 32.7161 79.5298 32.7161Z" fill="#4C4FD9"/>
<path d="M90.5627 54.9353H50.7212C48.1821 54.9353 46.1241 56.9932 46.1241 59.5325C46.1241 62.0716 48.1819 64.1297 50.7212 64.1297H90.5627C93.1018 64.1297 95.1599 62.0718 95.1599 59.5325C95.1599 56.9932 93.1018 54.9353 90.5627 54.9353Z" fill="#4C4FD9"/>
<path d="M111.403 3.90747H30.0343C27.4952 3.90747 25.4371 5.96534 25.4371 8.50465V51.8705H17.3157C7.76747 51.8705 0 59.6396 0 69.1862V94.7767C0 104.325 7.76747 112.092 17.3157 112.092C18.0971 112.092 18.8665 112.04 19.619 111.939H95.4664C106.788 111.939 116 102.728 116 91.4057V8.50465C116 5.96534 113.942 3.90747 111.403 3.90747ZM25.4373 94.7767C25.4373 98.7164 22.6161 102.011 18.8881 102.745H17.3159V102.898C12.8368 102.898 9.19436 99.254 9.19436 94.7765V69.1862C9.19436 64.7087 12.8384 61.0647 17.3159 61.0647H25.4375V94.7767H25.4373ZM106.806 91.4054C106.806 97.5519 101.614 102.745 95.4664 102.745H32.6869C33.9295 100.359 34.6314 97.6482 34.6314 94.7767V13.1016H106.806V91.4054Z" fill="#4246EB"/>
<path d="M79.5298 75.777H50.7212C48.1821 75.777 46.1241 77.8348 46.1241 80.3742C46.1241 82.9132 48.1819 84.9713 50.7212 84.9713H79.5298C82.0705 84.9713 84.127 82.9135 84.127 80.3742C84.1267 77.8348 82.0689 75.777 79.5298 75.777Z" fill="#4C4FD9"/>
</svg>
