<svg width="129" height="129" viewBox="0 0 129 129" fill="none" xmlns="http://www.w3.org/2000/svg">
<g clip-path="url(#clip0)">
<path d="M126.197 72.8559C124.252 72.3344 122.128 73.442 121.569 75.5281L121.481 75.8547L112.737 73.5115C113.281 70.5891 113.569 67.5775 113.569 64.4996C113.569 61.4215 113.281 58.4097 112.736 55.487L121.481 53.1439L121.569 53.4704C122.128 55.5568 124.252 56.6642 126.197 56.1426C128.213 55.6024 129.41 53.5301 128.869 51.514L126.738 43.5601C126.198 41.544 124.127 40.3472 122.109 40.8879C120.093 41.4281 118.897 43.5004 119.437 45.5165L119.525 45.843L110.777 48.1869C108.739 42.4218 105.654 37.1476 101.749 32.5951L108.169 26.1751L108.408 26.4142C109.883 27.8899 112.277 27.8904 113.753 26.4142C115.229 24.9382 115.229 22.5454 113.753 21.0695L107.93 15.2468C106.454 13.7709 104.061 13.7709 102.585 15.2468C101.109 16.7228 101.109 19.1156 102.585 20.5915L102.824 20.8306L96.4044 27.2504C91.8514 23.3451 86.577 20.2597 80.8116 18.2217L83.1552 9.47485L83.4818 9.56228C85.5765 10.1236 87.5921 8.82456 88.1104 6.89007C88.6506 4.87394 87.4543 2.80162 85.4382 2.26143L77.4843 0.130163C75.4679 -0.410276 73.3956 0.786501 72.8556 2.80238C72.3155 4.81851 73.5117 6.89082 75.5279 7.43101L75.8544 7.51844L73.5112 16.2632C70.5888 15.7185 67.5772 15.4308 64.4994 15.4308C61.4215 15.4308 58.4099 15.7185 55.4875 16.2632L53.1444 7.51844L53.4709 7.43101C55.487 6.89082 56.6833 4.81851 56.1431 2.80238C55.6032 0.785997 53.5308 -0.41078 51.5147 0.12966L43.5608 2.26093C41.5447 2.80112 40.3484 4.87343 40.8886 6.88956C41.4069 8.82431 43.4225 10.1234 45.5172 9.56178L45.8438 9.47435L48.1874 18.2212C42.422 20.2595 37.1476 23.3446 32.5946 27.2499L26.1745 20.8301L26.4136 20.591C27.8896 19.1151 27.8896 16.7223 26.4136 15.2463C24.9379 13.7704 22.5449 13.7704 21.069 15.2463L15.2463 21.069C13.7704 22.5449 13.7704 24.9377 15.2463 26.4137C16.7223 27.8899 19.1156 27.8893 20.591 26.4137L20.8301 26.1746L27.2501 32.5946C23.3451 37.1474 20.2599 42.4215 18.2216 48.1864L9.47433 45.8425L9.56175 45.516C10.1019 43.4999 8.90567 41.4275 6.88954 40.8874C4.8724 40.3467 2.8011 41.5434 2.26091 43.5596L0.129135 51.5142C-0.411053 53.5304 0.785221 55.6027 2.80135 56.1429C4.74643 56.6644 6.8709 55.5568 7.42998 53.4707L7.51741 53.1441L16.2622 55.4873C15.7175 58.4099 15.4295 61.4218 15.4295 64.4999C15.4295 67.5778 15.7172 70.5894 16.2619 73.5118L7.51716 75.8549L7.42973 75.5284C6.87064 73.442 4.74592 72.3346 2.8011 72.8562C0.784969 73.3964 -0.411305 75.4687 0.128883 77.4848L2.26015 85.4387C2.80059 87.4548 4.87165 88.6516 6.88878 88.1109C8.90491 87.5707 10.1012 85.4984 9.561 83.4823L9.47357 83.1558L18.2204 80.8121C20.2587 86.5775 23.3438 91.8519 27.2491 96.405L20.8291 102.825L20.59 102.586C19.1146 101.11 16.7213 101.11 15.2453 102.586C13.7694 104.062 13.7694 106.455 15.2453 107.931L21.0679 113.753C22.5436 115.229 24.9367 115.229 26.4126 113.753C27.8886 112.277 27.8886 109.884 26.4126 108.409L26.1735 108.169L32.5935 101.75C37.1466 105.655 42.421 108.74 48.1864 110.778L45.8427 119.525L45.5162 119.438C43.4215 118.876 41.4059 120.175 40.8876 122.11C40.3474 124.126 41.5437 126.198 43.5598 126.739L51.5137 128.87C53.5301 129.41 55.6024 128.214 56.1423 126.198C56.6825 124.182 55.4863 122.109 53.4701 121.569L53.1436 121.482L55.4868 112.737C58.4092 113.282 61.4208 113.569 64.4986 113.569C67.5765 113.569 70.5881 113.282 73.5105 112.737L75.8536 121.482L75.5271 121.569C73.511 122.109 72.3147 124.182 72.8549 126.198C73.3951 128.214 75.4671 129.41 77.4835 128.87L85.4374 126.739C87.4536 126.198 88.6498 124.126 88.1096 122.11C87.5914 120.175 85.5758 118.876 83.481 119.438L83.1545 119.525L80.8108 110.778C86.5762 108.74 91.8506 105.655 96.4037 101.75L102.824 108.169L102.585 108.409C101.109 109.884 101.109 112.277 102.585 113.753C104.06 115.229 106.453 115.229 107.929 113.753L113.752 107.931C115.228 106.455 115.228 104.062 113.752 102.586C112.276 101.11 109.883 101.11 108.407 102.586L108.168 102.825L101.748 96.405C105.653 91.8519 108.739 86.5775 110.777 80.8121L119.524 83.1558L119.436 83.4823C118.896 85.4984 120.092 87.5707 122.108 88.1109C124.126 88.6516 126.197 87.4548 126.737 85.4387L128.868 77.4848C129.41 75.4684 128.214 73.3961 126.197 72.8559ZM64.4994 106.011C41.6102 106.011 22.9883 87.3891 22.9883 64.4999C22.9883 41.6107 41.6102 22.9889 64.4994 22.9889C87.3885 22.9889 106.01 41.6107 106.01 64.4999C106.01 87.3891 87.3885 106.011 64.4994 106.011Z" fill="#4C4FD9"/>
<path d="M64.5 39.9429C66.5873 39.9429 68.2793 38.2508 68.2793 36.1636C68.2793 34.0763 66.5873 32.3843 64.5 32.3843C62.4128 32.3843 60.7207 34.0763 60.7207 36.1636C60.7207 38.2508 62.4128 39.9429 64.5 39.9429Z" fill="#4C4FD9"/>
<path d="M64.5 96.6157C66.5873 96.6157 68.2793 94.9237 68.2793 92.8364C68.2793 90.7492 66.5873 89.0571 64.5 89.0571C62.4128 89.0571 60.7207 90.7492 60.7207 92.8364C60.7207 94.9237 62.4128 96.6157 64.5 96.6157Z" fill="#4C4FD9"/>
<path d="M56.404 76.3754C58.4912 76.3754 60.1833 74.6833 60.1833 72.5961C60.1833 70.5088 58.4912 68.8168 56.404 68.8168C54.3167 68.8168 52.6247 70.5088 52.6247 72.5961C52.6247 74.6833 54.3167 76.3754 56.404 76.3754Z" fill="#4C4FD9"/>
<path d="M72.596 76.3754C74.6833 76.3754 76.3753 74.6833 76.3753 72.5961C76.3753 70.5088 74.6833 68.8168 72.596 68.8168C70.5088 68.8168 68.8167 70.5088 68.8167 72.5961C68.8167 74.6833 70.5088 76.3754 72.596 76.3754Z" fill="#4C4FD9"/>
<path d="M72.596 60.1833C74.6833 60.1833 76.3753 58.4913 76.3753 56.4041C76.3753 54.3168 74.6833 52.6248 72.596 52.6248C70.5088 52.6248 68.8167 54.3168 68.8167 56.4041C68.8167 58.4913 70.5088 60.1833 72.596 60.1833Z" fill="#4C4FD9"/>
<path d="M56.404 60.1833C58.4912 60.1833 60.1833 58.4913 60.1833 56.4041C60.1833 54.3168 58.4912 52.6248 56.404 52.6248C54.3167 52.6248 52.6247 54.3168 52.6247 56.4041C52.6247 58.4913 54.3167 60.1833 56.404 60.1833Z" fill="#4C4FD9"/>
<path d="M92.8364 68.2793C94.9237 68.2793 96.6157 66.5873 96.6157 64.5C96.6157 62.4128 94.9237 60.7207 92.8364 60.7207C90.7492 60.7207 89.0571 62.4128 89.0571 64.5C89.0571 66.5873 90.7492 68.2793 92.8364 68.2793Z" fill="#4C4FD9"/>
<path d="M36.1636 68.2793C38.2508 68.2793 39.9429 66.5873 39.9429 64.5C39.9429 62.4128 38.2508 60.7207 36.1636 60.7207C34.0763 60.7207 32.3843 62.4128 32.3843 64.5C32.3843 66.5873 34.0763 68.2793 36.1636 68.2793Z" fill="#4C4FD9"/>
<path d="M84.5368 48.2434C86.6241 48.2434 88.3161 46.5514 88.3161 44.4641C88.3161 42.3769 86.6241 40.6848 84.5368 40.6848C82.4496 40.6848 80.7575 42.3769 80.7575 44.4641C80.7575 46.5514 82.4496 48.2434 84.5368 48.2434Z" fill="#4C4FD9"/>
<path d="M44.4632 88.3171C46.5504 88.3171 48.2425 86.6251 48.2425 84.5378C48.2425 82.4506 46.5504 80.7585 44.4632 80.7585C42.3759 80.7585 40.6839 82.4506 40.6839 84.5378C40.6839 86.6251 42.3759 88.3171 44.4632 88.3171Z" fill="#4C4FD9"/>
<path d="M84.5368 88.3171C86.6241 88.3171 88.3161 86.6251 88.3161 84.5378C88.3161 82.4506 86.6241 80.7585 84.5368 80.7585C82.4496 80.7585 80.7575 82.4506 80.7575 84.5378C80.7575 86.6251 82.4496 88.3171 84.5368 88.3171Z" fill="#4C4FD9"/>
<path d="M44.4632 48.2434C46.5504 48.2434 48.2425 46.5514 48.2425 44.4641C48.2425 42.3769 46.5504 40.6848 44.4632 40.6848C42.3759 40.6848 40.6839 42.3769 40.6839 44.4641C40.6839 46.5514 42.3759 48.2434 44.4632 48.2434Z" fill="#4C4FD9"/>
</g>
<defs>
<clipPath id="clip0">
<rect width="129" height="129" fill="white"/>
</clipPath>
</defs>
</svg>
