<svg width="512" height="512" viewBox="0 0 512 512" fill="none" xmlns="http://www.w3.org/2000/svg">
<g clip-path="url(#clip0)">
<path d="M511.859 234.607C513.73 258.804 496.707 280.285 473.852 282.578C456.355 284.332 440.526 274.326 433.214 258.698L412.473 260.526L396.814 268.081C393.232 269.803 390.822 273.227 390.273 277.157C388.794 287.755 386.11 297.962 382.38 307.662C381.112 310.948 381.334 314.615 383.056 317.679L388.635 327.654L404.147 338.062C412.325 334.934 421.845 335.684 429.675 340.936C442.946 349.843 446.126 368.176 436.258 381.077C427.762 392.193 411.966 395.247 399.941 388.104C392.281 383.56 387.653 376.016 386.522 367.954L369.331 356.426L358.511 355.105C354.791 354.651 351.093 355.929 348.388 358.518C339.259 367.214 328.946 374.684 317.735 380.665C313.963 382.673 311.543 386.529 311.279 390.787L309.906 412.702L316.71 439.699C328.291 442.932 337.864 452.114 341.013 464.604C345.768 483.486 334.039 502.642 314.914 506.901C297.659 510.747 279.961 500.688 274.477 483.877C270.208 470.753 274.128 457.186 283.152 448.321L276.315 421.166L265.76 404.196C262.928 399.642 257.919 396.948 252.552 396.958C252.52 396.958 252.499 396.958 252.467 396.958C243.222 396.958 234.177 396.039 225.428 394.317C220.219 393.281 214.841 394.929 211.185 398.786L197.237 413.505L181.62 445.901C185.276 453.329 185.604 462.3 181.736 470.341C174.784 484.754 157.053 490.481 142.884 482.514C130.754 475.677 125.502 460.589 130.786 447.698C134.389 438.906 141.859 433.032 150.312 431.066L166.024 398.459L169.11 376.576C169.67 372.54 168.127 368.471 164.957 365.914C152.457 355.771 141.743 343.524 133.364 329.704C131.282 326.27 127.542 324.188 123.527 324.156L101.675 323.945L77.7533 331.468C76.0732 346.346 65.8873 359.564 50.693 364.34C30.2789 370.764 8.5334 359.543 1.90832 339.256C-4.71675 318.979 6.47297 296.8 26.7286 290.101C40.9086 285.41 55.8071 289.309 65.8873 298.892L91.2782 290.904L109.822 277.686C112.58 275.731 114.049 272.455 113.774 269.095C113.467 265.365 113.309 261.604 113.309 257.8C113.309 237.132 117.852 217.511 125.967 199.865C127.151 197.276 127.119 194.296 125.872 191.739L120.378 180.507L105.469 169.254C97.1213 171.928 87.6645 170.649 80.1413 164.975C67.3772 155.338 65.2216 136.858 75.788 124.527C84.8855 113.908 100.83 111.731 112.442 119.529C119.839 124.495 124.044 132.272 124.721 140.387L141.246 152.855L157.899 155.825C170.018 144.571 184.145 135.453 199.667 129.06L203.577 105.307L198.642 80.772C184.04 77.0104 172.184 65.8207 168.993 50.9011C164.492 29.8213 178.979 9.29096 201.358 5.05387C223.727 0.81678 245.515 14.4579 250.016 35.5377C253.386 51.3132 246.127 66.7717 232.877 75.3304L237.537 98.4706L248.98 116.729C249.731 117.923 251.041 118.642 252.446 118.642H252.467C278.672 118.642 303.207 125.932 324.16 138.591C325.311 139.278 326.727 139.373 327.942 138.802L345.863 130.497L366.784 107.864C365.527 99.7491 367.841 91.1482 373.853 84.6499C384.715 72.9107 403.312 72.6148 414.533 84.354C424.37 94.6562 424.751 111.087 415.41 121.843C409.366 128.806 400.691 132.019 392.217 131.385L371.296 154.018L364.502 172.297C364.026 173.565 364.238 174.981 365.03 176.08C373.282 187.407 379.865 200.023 384.409 213.569C385.666 217.289 388.625 220.184 392.407 221.251L409.419 226.017L431.524 224.062C436.944 208.434 450.48 196.61 467.101 194.941C489.956 192.648 510 210.41 511.859 234.607V234.607Z" fill="white"/>
<path d="M252.467 360.843C309.376 360.843 355.51 314.709 355.51 257.8C355.51 200.891 309.376 154.757 252.467 154.757C195.558 154.757 149.425 200.891 149.425 257.8C149.425 314.709 195.558 360.843 252.467 360.843Z" fill="black"/>
<path d="M180.832 257.8C180.832 206.229 218.714 163.508 268.171 155.946C263.05 155.163 257.806 154.757 252.467 154.757C195.557 154.757 149.425 200.89 149.425 257.8C149.425 314.71 195.557 360.843 252.467 360.843C257.806 360.843 263.05 360.437 268.171 359.654C218.715 352.091 180.832 309.37 180.832 257.8Z" fill="#EE4637"/>
<path d="M79.092 70.4688C95.2981 70.4688 108.436 57.3312 108.436 41.1251C108.436 24.9191 95.2981 11.7814 79.092 11.7814C62.8859 11.7814 49.7483 24.9191 49.7483 41.1251C49.7483 57.3312 62.8859 70.4688 79.092 70.4688Z" fill="white"/>
<path d="M71.071 447.303C81.7753 447.303 90.4528 438.625 90.4528 427.921C90.4528 417.216 81.7753 408.539 71.071 408.539C60.3667 408.539 51.6892 417.216 51.6892 427.921C51.6892 438.625 60.3667 447.303 71.071 447.303Z" fill="white"/>
<path d="M426.933 488.307C442.699 488.307 455.481 475.526 455.481 459.759C455.481 443.992 442.699 431.211 426.933 431.211C411.166 431.211 398.385 443.992 398.385 459.759C398.385 475.526 411.166 488.307 426.933 488.307Z" fill="white"/>
<path d="M220.838 255.998C235.537 255.998 247.453 244.082 247.453 229.383C247.453 214.684 235.537 202.767 220.838 202.767C206.139 202.767 194.223 214.684 194.223 229.383C194.223 244.082 206.139 255.998 220.838 255.998Z" fill="white"/>
<path d="M242.203 330.169C252.208 330.169 260.319 322.058 260.319 312.053C260.319 302.048 252.208 293.937 242.203 293.937C232.198 293.937 224.087 302.048 224.087 312.053C224.087 322.058 232.198 330.169 242.203 330.169Z" fill="white"/>
<path d="M299.088 273.012C307.489 273.012 314.3 266.202 314.3 257.8C314.3 249.398 307.489 242.588 299.088 242.588C290.686 242.588 283.875 249.398 283.875 257.8C283.875 266.202 290.686 273.012 299.088 273.012Z" fill="white"/>
</g>
<defs>
<clipPath id="clip0">
<rect width="512" height="512" fill="white"/>
</clipPath>
</defs>
</svg>
