<svg width="45" height="45" viewBox="0 0 45 45" fill="none" xmlns="http://www.w3.org/2000/svg">
<path d="M22.4972 0C10.0744 0 0 10.1137 0 22.59C0 32.5687 6.44625 41.0344 15.39 44.0241C16.515 44.2322 16.9256 43.5347 16.9256 42.9356C16.9256 42.3984 16.9059 40.9781 16.8947 39.0937C10.6369 40.4578 9.315 36.0647 9.315 36.0647C8.29406 33.4547 6.8175 32.76 6.8175 32.76C4.77281 31.3594 6.96937 31.3875 6.96937 31.3875C9.22781 31.5478 10.4147 33.7162 10.4147 33.7162C12.4228 37.1672 15.6825 36.1716 16.965 35.5922C17.1675 34.1325 17.7497 33.1369 18.3937 32.5716C13.3988 32.0006 8.145 30.0628 8.145 21.4087C8.145 18.9422 9.0225 16.9256 10.4625 15.345C10.2291 14.7741 9.45844 12.4762 10.6819 9.36844C10.6819 9.36844 12.5719 8.76094 16.8694 11.6831C18.6637 11.1825 20.5875 10.9322 22.5028 10.9237C24.4125 10.935 26.3391 11.1825 28.1362 11.6859C32.4309 8.76375 34.3181 9.37125 34.3181 9.37125C35.5444 12.4819 34.7738 14.7769 34.5431 15.3478C35.9859 16.9284 36.855 18.945 36.855 21.4116C36.855 30.0881 31.5956 31.9978 26.5837 32.5575C27.3909 33.255 28.1109 34.6331 28.1109 36.7397C28.1109 39.7603 28.0828 42.1959 28.0828 42.9356C28.0828 43.5403 28.4878 44.2434 29.6297 44.0212C38.5594 41.0287 45 32.5659 45 22.59C45 10.1137 34.9256 0 22.4972 0Z" fill="#EE4637"/>
</svg>
