<svg width="129" height="129" viewBox="0 0 129 129" fill="none" xmlns="http://www.w3.org/2000/svg">
<path d="M44.3438 47.7451C42.9522 47.7451 41.8242 48.8734 41.8242 50.2646V55.4718C41.8242 56.8631 42.9522 57.9913 44.3438 57.9913C45.7353 57.9913 46.8633 56.8631 46.8633 55.4718V50.2646C46.8633 48.8734 45.7353 47.7451 44.3438 47.7451Z" fill="#EE4637"/>
<path d="M54.4219 47.7451C53.0303 47.7451 51.9023 48.8734 51.9023 50.2646V55.4718C51.9023 56.8631 53.0303 57.9913 54.4219 57.9913C55.8134 57.9913 56.9414 56.8631 56.9414 55.4718V50.2646C56.9414 48.8734 55.8134 47.7451 54.4219 47.7451Z" fill="#EE4637"/>
<path d="M64.5 47.7451C63.1085 47.7451 61.9805 48.8734 61.9805 50.2646V55.4718C61.9805 56.8631 63.1085 57.9913 64.5 57.9913C65.8915 57.9913 67.0195 56.8631 67.0195 55.4718V50.2646C67.0195 48.8734 65.8915 47.7451 64.5 47.7451Z" fill="#EE4637"/>
<path d="M74.5781 47.7451C73.1866 47.7451 72.0586 48.8734 72.0586 50.2646V55.4718C72.0586 56.8631 73.1866 57.9913 74.5781 57.9913C75.9697 57.9913 77.0977 56.8631 77.0977 55.4718V50.2646C77.0977 48.8734 75.9697 47.7451 74.5781 47.7451Z" fill="#EE4637"/>
<path d="M84.6562 47.7451C83.2647 47.7451 82.1367 48.8734 82.1367 50.2646V55.4718C82.1367 56.8631 83.2647 57.9913 84.6562 57.9913C86.0478 57.9913 87.1758 56.8631 87.1758 55.4718V50.2646C87.1758 48.8734 86.0478 47.7451 84.6562 47.7451Z" fill="#EE4637"/>
<path d="M29.2266 113.925C28.5639 113.925 27.9139 114.194 27.4453 114.663C26.9766 115.132 26.707 115.782 26.707 116.444C26.707 117.107 26.9766 117.757 27.4453 118.226C27.9139 118.694 28.5639 118.964 29.2266 118.964C29.8892 118.964 30.5392 118.694 31.0079 118.226C31.4765 117.757 31.7461 117.107 31.7461 116.444C31.7461 115.782 31.4765 115.132 31.0079 114.663C30.5392 114.194 29.8892 113.925 29.2266 113.925Z" fill="#EE4637"/>
<path d="M29.2266 93.0967C27.835 93.0967 26.707 94.2249 26.707 95.6162V106.53C26.707 107.921 27.835 109.049 29.2266 109.049C30.6181 109.049 31.7461 107.921 31.7461 106.53V95.6162C31.7461 94.2249 30.6181 93.0967 29.2266 93.0967Z" fill="#EE4637"/>
<path d="M43.3359 93.0967C41.9444 93.0967 40.8164 94.2249 40.8164 95.6162V116.444C40.8164 117.836 41.9444 118.964 43.3359 118.964C44.7275 118.964 45.8555 117.836 45.8555 116.444V95.6162C45.8555 94.2249 44.7275 93.0967 43.3359 93.0967Z" fill="#EE4637"/>
<path d="M57.4453 93.0967C56.0538 93.0967 54.9258 94.2249 54.9258 95.6162V116.444C54.9258 117.836 56.0538 118.964 57.4453 118.964C58.8368 118.964 59.9648 117.836 59.9648 116.444V95.6162C59.9648 94.2249 58.8368 93.0967 57.4453 93.0967Z" fill="#EE4637"/>
<path d="M71.5547 93.0967C70.1632 93.0967 69.0352 94.2249 69.0352 95.6162V116.444C69.0352 117.836 70.1632 118.964 71.5547 118.964C72.9462 118.964 74.0742 117.836 74.0742 116.444V95.6162C74.0742 94.2249 72.9462 93.0967 71.5547 93.0967Z" fill="#EE4637"/>
<path d="M85.6641 93.0967C84.2725 93.0967 83.1445 94.2249 83.1445 95.6162V116.444C83.1445 117.836 84.2725 118.964 85.6641 118.964C87.0556 118.964 88.1836 117.836 88.1836 116.444V95.6162C88.1836 94.2249 87.0556 93.0967 85.6641 93.0967Z" fill="#EE4637"/>
<path d="M99.7734 93.0957C99.1108 93.0957 98.4608 93.3653 97.9921 93.8342C97.5235 94.3053 97.2539 94.9526 97.2539 95.6152C97.2539 96.2806 97.5235 96.9279 97.9921 97.3965C98.4608 97.8677 99.1108 98.1348 99.7734 98.1348C100.436 98.1348 101.086 97.8677 101.555 97.3965C102.023 96.9279 102.293 96.2804 102.293 95.6152C102.293 94.9526 102.023 94.3053 101.555 93.8342C101.086 93.3653 100.436 93.0957 99.7734 93.0957Z" fill="#EE4637"/>
<path d="M99.7734 103.175C98.3819 103.175 97.2539 104.303 97.2539 105.694V116.444C97.2539 117.836 98.3819 118.964 99.7734 118.964C101.165 118.964 102.293 117.836 102.293 116.444V105.694C102.293 104.303 101.165 103.175 99.7734 103.175Z" fill="#EE4637"/>
<path d="M39.3047 68.7832C37.9132 68.7832 36.7852 69.9114 36.7852 71.3027V76.5098C36.7852 77.9011 37.9132 79.0294 39.3047 79.0294C40.6962 79.0294 41.8242 77.9011 41.8242 76.5098V71.3027C41.8242 69.9114 40.6962 68.7832 39.3047 68.7832Z" fill="#EE4637"/>
<path d="M49.3828 68.7832C47.9913 68.7832 46.8633 69.9114 46.8633 71.3027V76.5098C46.8633 77.9011 47.9913 79.0294 49.3828 79.0294C50.7743 79.0294 51.9023 77.9011 51.9023 76.5098V71.3027C51.9023 69.9114 50.7743 68.7832 49.3828 68.7832Z" fill="#EE4637"/>
<path d="M59.4609 68.7832C58.0694 68.7832 56.9414 69.9114 56.9414 71.3027V76.5098C56.9414 77.9011 58.0694 79.0294 59.4609 79.0294C60.8525 79.0294 61.9805 77.9011 61.9805 76.5098V71.3027C61.9805 69.9114 60.8525 68.7832 59.4609 68.7832Z" fill="#EE4637"/>
<path d="M69.5391 68.7832C68.1475 68.7832 67.0195 69.9114 67.0195 71.3027V76.5098C67.0195 77.9011 68.1475 79.0294 69.5391 79.0294C70.9306 79.0294 72.0586 77.9011 72.0586 76.5098V71.3027C72.0586 69.9114 70.9306 68.7832 69.5391 68.7832Z" fill="#EE4637"/>
<path d="M79.6172 68.7832C78.2257 68.7832 77.0977 69.9114 77.0977 71.3027V76.5098C77.0977 77.9011 78.2257 79.0294 79.6172 79.0294C81.0087 79.0294 82.1367 77.9011 82.1367 76.5098V71.3027C82.1367 69.9114 81.0087 68.7832 79.6172 68.7832Z" fill="#EE4637"/>
<path d="M89.6953 68.7832C88.3038 68.7832 87.1758 69.9114 87.1758 71.3027V76.5098C87.1758 77.9011 88.3038 79.0294 89.6953 79.0294C91.0868 79.0294 92.2148 77.9011 92.2148 76.5098V71.3027C92.2148 69.9114 91.0868 68.7832 89.6953 68.7832Z" fill="#EE4637"/>
<path d="M126.48 89.6533H116.402V84.1103C116.402 82.719 115.274 81.5908 113.883 81.5908H102.293V64.458H104.057C105.448 64.458 106.576 63.3297 106.576 61.9384C106.576 60.5471 105.448 59.4189 104.057 59.4189H97.002V46.3045C98.2751 46.178 99.2695 45.1039 99.2695 43.7978C99.2695 42.4065 98.1415 41.2783 96.75 41.2783H94.4824H90.5351V39.0949C90.5351 25.5889 80.1974 14.4533 67.0195 13.1817V2.56165C67.0195 1.17036 65.8915 0.0421143 64.5 0.0421143C63.1085 0.0421143 61.9805 1.17036 61.9805 2.56165V13.1817C48.8023 14.4533 38.4649 25.5889 38.4649 39.0949V41.2783H34.5176H32.25C30.8585 41.2783 29.7305 42.4065 29.7305 43.7978C29.7305 45.1042 30.7249 46.1783 31.998 46.3045V59.4189H24.9434C23.5518 59.4189 22.4238 60.5471 22.4238 61.9384C22.4238 63.3297 23.5518 64.458 24.9434 64.458H26.707V81.5908H15.1172C13.7257 81.5908 12.5977 82.719 12.5977 84.1103V89.6533H2.51953C1.12799 89.6533 0 90.7815 0 92.1728V126.438C0 127.83 1.12799 128.958 2.51953 128.958H126.48C127.872 128.958 129 127.83 129 126.438V92.1728C129 90.7815 127.872 89.6533 126.48 89.6533ZM43.504 39.0949C43.504 27.5176 52.9228 18.0986 64.5 18.0986C76.0772 18.0986 85.496 27.5176 85.496 39.0949V41.2783H43.504V39.0949ZM37.0371 46.3173H40.9845H88.0158H91.9629V59.4189H37.0371V46.3173ZM31.7461 64.458H97.2539V81.5908H31.7461V64.458ZM5.03906 94.6924H12.5977V123.919H5.03906V94.6924ZM17.6367 92.1728V86.6299H111.363V92.1728V123.919H17.6367V92.1728ZM123.961 123.919H116.402V94.6924H123.961V123.919Z" fill="#EE4637"/>
</svg>
