<svg width="142" height="142" viewBox="0 0 142 142" fill="none" xmlns="http://www.w3.org/2000/svg">
<g clip-path="url(#clip0)">
<path d="M121.404 30.0595L114.563 23.2183C113.48 22.1356 111.724 22.1356 110.641 23.2183C109.558 24.3013 109.558 26.0575 110.641 27.1408L117.482 33.982C118.78 35.2803 118.78 37.3928 117.482 38.691C116.184 39.9893 114.071 39.9901 112.773 38.691L104.534 30.4528C104.534 30.4528 104.534 30.4525 104.534 30.4525L93.5484 19.467C93.5482 19.4667 93.5479 19.4664 93.5476 19.4661L85.3094 11.2279C84.0112 9.92969 84.0112 7.81744 85.3094 6.51892C86.6077 5.22012 88.7202 5.22068 90.0184 6.51892L95.6124 12.1129C96.6955 13.1957 98.4516 13.1957 99.5349 12.1129C100.618 11.0299 100.618 9.27377 99.5349 8.19047L93.9412 2.59646C90.4802 -0.864509 84.8485 -0.864509 81.3875 2.59646C77.9265 6.05742 77.9265 11.6889 81.3875 15.1501L87.6654 21.4281L76.7897 32.3038L70.1196 25.6337L66.9482 22.4623C65.8652 21.3795 64.109 21.3795 63.0257 22.4623C61.9427 23.5453 61.9427 25.3014 63.0257 26.3847L64.2358 27.5948L17.6715 74.1588C11.0277 80.8025 9.36147 90.5667 12.6705 98.7766L1.85545 109.592C0.178913 111.268 -0.744364 113.497 -0.744364 115.869C-0.744364 117.283 -0.413492 118.645 0.207203 119.871L-17.1875 137.266C-18.2705 138.349 -18.2705 140.105 -17.1875 141.188C-16.6458 141.73 -15.9361 142.001 -15.2264 142.001C-14.5167 142.001 -13.8067 141.73 -13.2653 141.188L4.12939 123.794C5.35552 124.414 6.71783 124.745 8.13201 124.745C10.503 124.745 12.732 123.822 14.4088 122.146L25.2241 111.33C27.9537 112.43 30.855 112.981 33.7566 112.981C39.5819 112.981 45.4069 110.764 49.8417 106.329L96.4059 59.7655L97.616 60.9755C98.1576 61.5169 98.8673 61.7879 99.5771 61.7879C100.287 61.7879 100.997 61.5169 101.538 60.9755C102.621 59.8925 102.621 58.1364 101.538 57.0531L98.3684 53.8833C98.3678 53.8828 98.3676 53.8825 98.367 53.8819L91.6969 47.2118L102.573 36.3361L108.85 42.614C110.527 44.2906 112.756 45.2139 115.127 45.2139C117.498 45.2139 119.727 44.2906 121.404 42.614C124.865 39.1522 124.865 33.5208 121.404 30.0595ZM10.4867 118.223C9.85791 118.852 9.02172 119.198 8.13228 119.198C7.24284 119.198 6.40693 118.852 5.77792 118.223C4.47967 116.925 4.47967 114.812 5.77792 113.514L15.491 103.801C16.1467 104.683 16.8716 105.53 17.6715 106.329C18.4714 107.129 19.3175 107.854 20.1998 108.51L10.4867 118.223ZM92.4829 55.843L84.5706 63.7556L79.1427 58.3278C78.0597 57.245 76.3035 57.245 75.2205 58.3278C74.1375 59.4108 74.1375 61.1669 75.2205 62.2502L80.6484 67.6778L71.493 76.8332L66.0651 71.4053C64.9821 70.3226 63.226 70.3226 62.1427 71.4053C61.0596 72.4883 61.0596 74.2445 62.1427 75.3278L67.5705 80.7557L58.4152 89.911L52.9873 84.4832C51.9043 83.4004 50.1481 83.4004 49.0648 84.4832C47.9818 85.5662 47.9818 87.3223 49.0648 88.4056L54.4927 93.8335L45.9195 102.407C45.7242 102.602 45.5248 102.79 45.3226 102.974L39.9094 97.5613C38.8264 96.4785 37.0703 96.4785 35.987 97.5613C34.9039 98.6443 34.9039 100.4 35.987 101.484L40.5462 106.043C34.2697 108.731 26.7093 107.522 21.5934 102.407C14.8867 95.7003 14.8867 84.788 21.5934 78.0812L68.1574 31.5173L92.4829 55.843ZM87.7747 43.2891L80.7116 36.226L91.5873 25.3503L98.6505 32.4134L87.7747 43.2891Z" fill="#EE4637"/>
<path d="M72.492 57.856C71.409 56.7733 69.6528 56.7733 68.5698 57.856L47.142 79.2838C46.059 80.3668 46.059 82.123 47.142 83.2063C47.6836 83.7477 48.3934 84.0186 49.1031 84.0186C49.8128 84.0186 50.5228 83.7477 51.0642 83.2063L72.492 61.7785C73.575 60.6957 73.575 58.9396 72.492 57.856Z" fill="#EE4637"/>
<path d="M79.4003 50.9482C78.8845 50.4296 78.1689 50.1356 77.4395 50.1356C76.7101 50.1356 75.9945 50.4296 75.4787 50.9482C74.9628 51.4638 74.6661 52.1769 74.6661 52.9091C74.6661 53.6385 74.9628 54.354 75.4787 54.8696C75.9945 55.3855 76.7101 55.6825 77.4395 55.6825C78.1689 55.6825 78.8845 55.3857 79.4003 54.8696C79.9162 54.354 80.2129 53.6385 80.2129 52.9091C80.2129 52.1766 79.9162 51.4638 79.4003 50.9482Z" fill="#EE4637"/>
</g>
<defs>
<clipPath id="clip0">
<rect width="142" height="142" fill="white"/>
</clipPath>
</defs>
</svg>
