<svg width="144" height="144" viewBox="0 0 144 144" fill="none" xmlns="http://www.w3.org/2000/svg">
<g clip-path="url(#clip0)">
<path d="M57.7575 58.5622C55.9991 55.7326 54.5903 52.7258 53.5381 49.6067V95.4049L68.2886 70.1188C64.1238 66.9609 60.5491 63.0541 57.7575 58.5622Z" fill="white"/>
<path d="M94.1538 1.38452C75.0997 1.38452 59.5977 16.8865 59.5977 35.9406C59.5977 38.6057 59.9113 41.2233 60.5011 43.7537C60.5143 43.8111 60.5278 43.8687 60.5413 43.9258C60.6068 44.2015 60.676 44.476 60.7483 44.7493C60.7627 44.8033 60.7773 44.8573 60.7922 44.9111C61.1142 46.105 61.4992 47.2766 61.9445 48.4225C61.9642 48.4728 61.983 48.5234 62.003 48.5741C62.1022 48.8258 62.2049 49.0761 62.3098 49.325C62.3407 49.399 62.3722 49.4726 62.404 49.5463C62.5089 49.7905 62.6155 50.0337 62.7261 50.2753C62.7545 50.3381 62.7843 50.3999 62.8132 50.4624C63.1803 51.253 63.5763 52.0289 64.001 52.7889C64.0319 52.8446 64.062 52.9005 64.0932 52.9562C64.2127 53.1677 64.3365 53.377 64.4608 53.5856C64.5199 53.6846 64.5784 53.7839 64.6383 53.8824C64.7578 54.079 64.8793 54.2741 65.0028 54.4682C65.0703 54.5748 65.1392 54.6806 65.2084 54.7863C65.3318 54.9761 65.4559 55.1657 65.583 55.3533C65.6516 55.4543 65.7225 55.5544 65.7922 55.6545C66.0535 56.0303 66.3213 56.401 66.5969 56.7663C66.6537 56.8417 66.7091 56.9187 66.7665 56.9933C66.8891 57.153 67.0154 57.31 67.1411 57.468C67.2415 57.5943 67.3417 57.7209 67.444 57.846C67.5664 57.9954 67.6904 58.143 67.8153 58.2901C67.9269 58.422 68.0394 58.5525 68.1528 58.6827C68.2748 58.8228 68.3977 58.9623 68.5221 59.1004C68.6475 59.2393 68.7752 59.3769 68.9029 59.5138C69.0204 59.6401 69.1372 59.7672 69.2567 59.8918C69.4434 60.0865 69.6338 60.278 69.8251 60.4684C69.9604 60.6031 70.0976 60.7361 70.2352 60.8686C70.4129 61.0399 70.5912 61.21 70.7726 61.3777C70.8854 61.4815 70.9999 61.5833 71.1141 61.6854C71.2752 61.8299 71.4369 61.9736 71.6009 62.1151C71.7187 62.2169 71.8377 62.3179 71.957 62.418C72.1268 62.5606 72.2981 62.7012 72.4705 62.841C72.5844 62.9333 72.6981 63.0258 72.8134 63.1164C73.0184 63.2778 73.2262 63.4359 73.4349 63.5931C73.5199 63.6566 73.6034 63.7225 73.6889 63.7855C73.9814 64.0009 74.2776 64.2118 74.5777 64.4186C74.664 64.4782 74.752 64.5353 74.8389 64.5938C75.0608 64.7437 75.2836 64.8916 75.5094 65.0367C75.6231 65.1096 75.7378 65.181 75.8523 65.2527C76.0587 65.3818 76.2663 65.5092 76.4758 65.6341C76.5937 65.7044 76.7121 65.7745 76.8307 65.8436C77.0527 65.9725 77.2765 66.0979 77.5018 66.2219C77.6067 66.2799 77.7108 66.3384 77.8165 66.3952C78.1467 66.5726 78.4794 66.7465 78.8167 66.9135L84.8098 76.1537L90 84.155L90.6691 85.1866C91.4349 86.3673 92.7467 87.08 94.1538 87.08C95.5612 87.08 96.8726 86.3676 97.6385 85.1866L98.3076 84.155L98.7041 83.5436L103.45 76.2274L109.491 66.9138C109.829 66.7462 110.163 66.5721 110.493 66.3943C110.6 66.3372 110.704 66.2776 110.81 66.2197C111.035 66.0959 111.258 65.9708 111.479 65.8422C111.6 65.7722 111.72 65.7008 111.84 65.6291C112.047 65.5056 112.252 65.3801 112.456 65.2525C112.574 65.1785 112.692 65.1048 112.809 65.0297C113.024 64.8916 113.236 64.7499 113.448 64.6073C113.547 64.5409 113.646 64.4756 113.744 64.4081C114.043 64.2014 114.34 63.9913 114.632 63.7762C114.709 63.7188 114.785 63.6592 114.861 63.6018C115.078 63.439 115.294 63.275 115.506 63.1074C115.625 63.0137 115.742 62.9184 115.859 62.823C116.027 62.6872 116.194 62.5502 116.359 62.4113C116.485 62.3055 116.61 62.1989 116.734 62.0915C116.887 61.9585 117.039 61.824 117.19 61.6882C117.316 61.5754 117.442 61.4632 117.565 61.349C117.715 61.2112 117.861 61.0706 118.008 60.9299C118.126 60.816 118.247 60.7038 118.364 60.5885C118.603 60.3534 118.838 60.1149 119.07 59.8733C119.204 59.7338 119.334 59.5909 119.465 59.4491C119.578 59.3276 119.691 59.2061 119.802 59.083C119.939 58.9305 120.074 58.7761 120.208 58.6214C120.307 58.5075 120.405 58.3936 120.503 58.2786C120.641 58.1152 120.778 57.9506 120.913 57.7847C120.998 57.6801 121.082 57.5746 121.166 57.4689C121.308 57.2906 121.449 57.1122 121.588 56.9314C121.641 56.8614 121.693 56.7899 121.746 56.7196C122.259 56.0379 122.746 55.3378 123.207 54.6206C123.246 54.5599 123.286 54.5003 123.324 54.4392C123.466 54.2145 123.605 53.9876 123.743 53.7595C123.784 53.692 123.824 53.6242 123.864 53.5567C124.004 53.3213 124.141 53.0847 124.275 52.8462C124.3 52.8024 124.323 52.7582 124.348 52.7143C124.962 51.6085 125.517 50.4688 126.009 49.2991C126.013 49.2893 126.017 49.2791 126.021 49.2693C126.143 48.9793 126.26 48.6877 126.373 48.3946C126.381 48.3749 126.389 48.355 126.397 48.3353C127.1 46.5097 127.651 44.6188 128.038 42.6793C128.038 42.6791 128.038 42.6785 128.038 42.6782C128.476 40.4839 128.709 38.23 128.709 35.9406C128.71 16.8865 113.208 1.38452 94.1538 1.38452ZM94.1538 54.7033C83.8083 54.7033 75.391 46.2864 75.391 35.9406C75.391 25.5948 83.808 17.1776 94.1538 17.1776C104.5 17.1776 112.917 25.5945 112.917 35.9406C112.917 46.2864 104.499 54.7033 94.1538 54.7033Z" fill="white"/>
<path d="M140.834 45.8116L136.118 44.6565C135.098 49.5545 133.223 54.2609 130.55 58.5623C126.752 64.6736 121.508 69.7083 115.293 73.2357L108.977 82.9726L123.813 101.077H144V49.8461C144 47.9325 142.693 46.2666 140.834 45.8116Z" fill="white"/>
<path d="M5.14181 34.7346C3.90347 34.4311 2.59341 34.7135 1.58934 35.501C0.586125 36.2888 0 37.4936 0 38.7691V78.9229H22.1538C23.2675 78.9229 24.3346 79.3701 25.1153 80.1643L45.2306 100.62V44.5522L5.14181 34.7346Z" fill="white"/>
<path d="M83.6991 89.7072L74.9075 76.1538H74.3855L53.5381 111.892V141.721L90 132.792V94.6738C87.4462 93.7736 85.2224 92.0557 83.6991 89.7072Z" fill="white"/>
<path d="M121.846 109.385C120.601 109.385 119.422 108.826 118.633 107.863L104.217 90.271C102.716 92.3312 100.652 93.8476 98.3076 94.6734V132.565L138.858 142.496C139.185 142.576 139.516 142.615 139.846 142.615C140.766 142.615 141.672 142.309 142.41 141.729C143.414 140.942 144 139.737 144 138.461V109.385H121.846Z" fill="white"/>
<path d="M20.4128 87.2307H0V127.384C0 129.298 1.30697 130.964 3.16575 131.419L45.2306 141.721V112.469L20.4128 87.2307Z" fill="white"/>
</g>
<defs>
<clipPath id="clip0">
<rect width="144" height="144" fill="white"/>
</clipPath>
</defs>
</svg>
